<svg width="208" height="170" viewBox="0 0 208 170" fill="none" xmlns="http://www.w3.org/2000/svg">
<g id="layer1">
<g id="g10">
<g id="g12">
<path id="path16" fill-rule="evenodd" clip-rule="evenodd" d="M21.2754 119.731C21.4836 121.608 20.2325 123.797 18.2504 124.84C16.8948 125.466 15.3305 125.884 13.7657 125.466C11.1584 124.632 9.28141 122.129 9.0728 119.417C9.38547 118.792 8.86406 117.644 9.80282 117.332L21.2754 119.731ZM199.098 112.743C199.41 115.35 198.471 117.853 196.177 119.313C194.822 119.939 193.153 120.46 191.588 120.043C189.607 119.313 187.312 117.436 187.208 115.246V114.724C191.275 114.307 195.03 113.264 199.098 112.743ZM141.944 36.295L146.949 35.147V39.8414L142.048 41.1968V52.8779L137.459 54.0246V32.8535L141.944 31.7055V36.295ZM110.864 23.7794C103.772 22.3192 97.8273 26.1779 93.2385 31.3932C90.1099 35.147 88.9619 40.9882 90.9441 45.5777C92.5083 48.6007 95.5328 50.3745 98.5574 51.3127C106.171 52.5644 113.054 48.7056 117.226 42.3435C119.833 38.3811 120.147 32.019 117.226 28.0554C115.557 25.7607 113.263 24.509 110.864 23.7794ZM18.5637 158.215L28.7842 156.859C28.7842 156.859 27.6373 156.025 25.6556 153.626C23.6739 151.123 22.2137 146.43 24.6127 141.736C26.9071 137.043 30.7663 134.331 36.2935 133.497L166.87 118.062L189.711 126.614V124.215C189.815 123.381 190.753 123.485 191.275 123.067C193.986 122.859 198.784 122.233 198.993 124.423V148.411L207.962 149.454V0.313538H183.14L185.956 27.7431C185.956 27.7431 194.3 108.883 194.403 109.927C194.508 111.282 193.986 111.908 192.839 112.117C191.693 112.325 190.753 112.013 190.336 111.178L185.852 92.092L166.036 84.3745L145.282 104.086V104.295C150.808 107.632 161.865 114.62 161.865 114.62L145.906 116.706L136.834 111.7L129.116 118.792C129.116 118.792 118.478 120.356 113.159 120.669C117.747 116.08 122.963 111.282 127.76 106.798C120.563 102.522 113.263 98.5589 106.067 94.3868C102.833 94.9083 99.3916 95.2211 96.367 95.9512C100.018 96.1598 103.146 97.5156 106.171 99.0798C110.656 101.687 115.14 106.172 114.306 111.908C113.68 115.663 110.968 119.417 107.422 121.399C95.9497 122.755 84.4777 124.736 72.901 125.466C69.8765 124.319 66.4346 122.129 65.1831 118.792C63.2014 113.056 66.3306 107.736 70.5025 103.878C67.6862 102.939 64.6617 102.105 61.8458 101.062V108.049L46.0972 110.761V116.601L60.5942 114.307V121.294L46.0972 123.381V128.7L36.0852 129.951V107.736L32.8521 106.485L32.9562 102.105L166.349 78.8471L184.496 86.1475L178.76 61.2212C174.588 59.0314 171.355 57.6748 166.87 55.7973L157.901 69.7731V77.4918L151.018 78.8471V70.6075L147.054 66.123C144.447 65.4971 140.38 63.6196 137.98 63.0987C139.649 63.7245 142.153 65.8095 142.674 68.0005C143.196 70.7112 141.839 73.2146 139.649 74.6749C141.944 76.2389 146.742 79.473 146.742 79.473L138.607 80.8286L132.035 76.3438V82.1842L125.57 83.227V69.1473L120.251 66.9574C120.251 66.9574 120.459 75.7179 120.251 79.7853C119.833 82.1842 118.999 83.8531 117.539 84.6873L108.778 86.252C106.901 86.1475 105.858 84.2705 105.337 81.7673C104.815 78.0127 105.128 73.1109 105.024 70.6075L102.103 69.7731V74.7798L97.6186 75.7179V88.2333L92.2997 89.172V76.761L87.6063 77.8041L87.7108 74.2577L84.895 73.3195L84.7905 90.5281L79.0541 91.5711L72.0663 84.5831V92.9267L66.7474 93.7609L66.852 78.7422L62.9928 77.3868V81.35L56.3181 82.9144V86.1475L62.4714 84.8959V88.1292L56.4228 89.4848L56.5269 92.5093L63.2014 91.2578V94.3868L50.9987 96.6813V84.8959C49.3303 84.3745 48.4961 83.7486 44.0114 83.0184C46.0972 83.5403 47.3488 84.0612 48.0788 86.252C46.7232 87.1904 45.6799 87.7119 44.3241 88.6506C43.5941 87.7119 42.4471 87.5031 41.1955 87.6077C40.1527 88.1292 39.4221 88.8592 38.9011 89.9022C38.3792 91.0492 38.5879 92.6139 39.0052 93.7609C39.5266 95.0124 40.8827 95.6379 42.2385 95.6379C43.6986 95.4298 44.6369 93.7609 45.263 92.7179C46.7232 93.2395 47.9747 93.865 49.3303 94.4909C48.6002 96.1598 47.6619 96.994 46.4099 97.5156C43.8027 98.141 40.1527 98.767 37.4409 99.1839C35.5633 98.141 34.3123 96.0553 33.7904 94.0741C33.269 90.945 33.6863 87.5031 36.2935 85.3133C35.0419 84.6873 34.2077 84.3745 32.8521 83.8531V80.0988L137.146 56.8415C146.949 54.6505 166.662 50.1659 166.662 50.1659L177.091 54.7554L173.024 37.4417C173.024 37.4417 165.932 34.4175 162.803 33.0621C164.575 34.0002 163.95 43.2817 164.054 47.9761L159.465 49.1228V37.6504C159.465 37.6504 159.779 36.7122 158.631 36.1901C157.38 35.6691 156.337 36.9208 155.711 37.7553V49.9573L151.018 51.0004V28.7861C142.153 24.9274 133.287 20.9638 124.318 17.2087C127.447 20.0244 129.846 23.4671 130.889 27.3258C133.809 39.9451 127.239 51.3127 116.913 58.6141L97.3059 63.2024C91.5696 63.0987 86.0419 60.9077 82.1832 56.2145C77.3857 50.2696 76.7602 40.2586 79.7843 33.1658C77.6985 32.1227 75.5082 30.7674 73.5265 30.0366C82.2874 44.0125 65.809 53.6074 58.6126 63.9331C64.4534 62.4729 76.3424 59.9695 76.3424 59.9695L76.2383 68.0005L36.919 76.761V72.0678L52.8767 54.0246C56.6309 49.6438 60.907 45.6814 63.8275 40.8833C64.1403 39.423 64.0356 37.7553 62.5759 36.8159C61.2198 35.6691 58.9253 35.8778 57.1523 36.0864C53.7105 37.1294 50.0605 40.1537 49.9559 44.0124L37.1282 46.933C38.3792 37.9639 45.5757 28.264 54.4406 25.4483C64.4534 21.2761 75.6123 29.6194 80.619 31.6018L83.3302 27.0123C90.4227 17.105 100.956 10.8467 113.471 12.4119C120.563 13.35 140.17 22.8401 151.122 27.4296V18.5641L155.711 17.7309L169.894 24.1967L164.575 0.313538H39.8399L22.3183 93.9695L18.5637 113.994L17.8336 115.246C17.3122 115.767 16.3734 115.975 15.6432 115.663C14.9136 115.35 14.0789 114.516 14.1834 113.577L18.4595 0H1.04205L0.937988 160.926L9.69875 159.571V130.785C9.59421 129.012 12.5147 128.804 14.0789 128.7C15.6432 128.595 18.4595 128.804 18.5637 130.785V158.215ZM155.711 18.8776V34.1052C155.711 34.1052 155.503 33.6867 157.067 32.2276C158.735 30.871 159.256 30.976 160.613 30.871L172.711 36.1901L170.103 25.3434L155.711 18.8776ZM166.766 122.65L60.8029 134.018L189.711 147.473V131.098L166.766 122.65ZM148.827 60.1781L154.355 66.2279L156.441 62.9938L148.827 60.1781ZM114.618 70.3989L110.447 69.0436C110.447 69.0436 110.342 79.6816 110.552 80.6197C110.864 81.5581 111.802 82.1842 112.846 81.9755C113.785 81.6628 114.411 80.7246 114.618 79.8902V70.3989ZM133.809 68.0005C132.558 68.1042 131.827 68.2091 131.827 68.2091V72.2764C131.827 72.2764 133.496 72.1715 134.851 71.6506C136.208 71.1285 136.208 70.0866 136.103 69.4608C136.103 68.9386 135.686 67.7919 133.809 68.0005ZM71.7535 76.1352L79.7843 85V78.4299L71.7535 76.1352ZM123.692 91.0492L136.52 98.8717L143.299 92.8221L123.692 91.0492ZM88.1277 104.191C83.1221 105.129 76.9684 107.319 75.7168 113.056C75.7168 114.516 76.6552 115.663 77.8031 116.393C83.8521 119.731 92.4038 118.792 97.9319 114.933C99.9131 113.368 101.791 111.178 101.269 108.571C98.5574 103.982 93.0298 104.295 88.1277 104.191ZM51.4161 135.896C45.7844 135.583 37.0236 135.583 32.4348 138.608C28.7842 141.215 26.5943 144.657 27.6373 149.246C28.3673 151.957 31.0791 154.565 33.5821 155.921C35.6679 156.964 37.9624 157.694 40.2568 158.527C26.5943 160.405 14.7045 162.491 0.937988 164.16V169.896L207.962 170V153.208L51.4161 135.896Z" fill="black"/>
</g>
</g>
</g>
</svg>
