<svg width="16" height="16" viewBox="0 0 16 16" fill="none" xmlns="http://www.w3.org/2000/svg">
<g id="Icons 24px">
<path id="Union" fill-rule="evenodd" clip-rule="evenodd" d="M1.53504 0.468629C1.23498 0.768687 1.06641 1.17565 1.06641 1.6V14.4C1.06641 14.8243 1.23498 15.2313 1.53504 15.5314C1.83509 15.8314 2.24206 16 2.66641 16H13.3331C13.7574 16 14.1644 15.8314 14.4644 15.5314C14.7645 15.2313 14.9331 14.8243 14.9331 14.4V3.51253L11.4205 0H2.66641C2.24206 0 1.83509 0.168571 1.53504 0.468629ZM2.13307 6.4H3.73307C4.15742 6.4 4.56439 6.56857 4.86444 6.86863C5.1645 7.16869 5.33307 7.57565 5.33307 8C5.33307 8.42435 5.1645 8.83131 4.86444 9.13137C4.56439 9.43143 4.15742 9.6 3.73307 9.6H3.19974V11.7333H2.13307V6.4ZM6.39974 6.4H7.99974C8.42409 6.4 8.83105 6.56857 9.13111 6.86863C9.43117 7.16869 9.59974 7.57565 9.59974 8V10.1333C9.59974 10.5577 9.43117 10.9646 9.13111 11.2647C8.83105 11.5648 8.42409 11.7333 7.99974 11.7333H6.39974V6.4ZM10.6664 6.4V11.7333H11.7331V9.6H12.7997V8.53333H11.7331V7.46667H13.8664V6.4H10.6664ZM3.19971 8.53334H3.73304C3.87449 8.53334 4.01014 8.47715 4.11016 8.37713C4.21018 8.27711 4.26637 8.14146 4.26637 8.00001C4.26637 7.85856 4.21018 7.7229 4.11016 7.62288C4.01014 7.52287 3.87449 7.46667 3.73304 7.46667H3.19971V8.53334ZM7.46637 7.46667V10.6667H7.99971C8.14116 10.6667 8.27681 10.6105 8.37683 10.5105C8.47685 10.4104 8.53304 10.2748 8.53304 10.1333V8.00001C8.53304 7.85856 8.47685 7.7229 8.37683 7.62288C8.27681 7.52287 8.14116 7.46667 7.99971 7.46667H7.46637Z" fill="#D8251D"/>
</g>
</svg>
