<svg width="16" height="16" viewBox="0 0 16 16" fill="none" xmlns="http://www.w3.org/2000/svg">
<g id="Icons 24px">
<path id="Union" fill-rule="evenodd" clip-rule="evenodd" d="M1.53528 0.468629C1.23522 0.768687 1.06665 1.17565 1.06665 1.6V14.4C1.06665 14.8243 1.23522 15.2313 1.53528 15.5314C1.83534 15.8314 2.2423 16 2.66665 16H13.3333C13.7577 16 14.1646 15.8314 14.4647 15.5314C14.7647 15.2313 14.9333 14.8243 14.9333 14.4V3.51253L11.4208 0H2.66665C2.2423 0 1.83534 0.168571 1.53528 0.468629ZM2.13332 6.4H3.73332C4.15766 6.4 4.56463 6.56857 4.86469 6.86863C5.16475 7.16869 5.33332 7.57565 5.33332 8C5.33332 8.42435 5.16475 8.83131 4.86469 9.13137C4.56463 9.43143 4.15766 9.6 3.73332 9.6H3.19998V11.7333H2.13332V6.4ZM6.39998 6.4H7.99998C8.42433 6.4 8.8313 6.56857 9.13136 6.86863C9.43141 7.16869 9.59998 7.57565 9.59998 8V10.1333C9.59998 10.5577 9.43141 10.9646 9.13136 11.2647C8.8313 11.5648 8.42433 11.7333 7.99998 11.7333H6.39998V6.4ZM10.6667 6.4V11.7333H11.7333V9.6H12.8V8.53333H11.7333V7.46667H13.8667V6.4H10.6667ZM3.19995 8.53334H3.73328C3.87473 8.53334 4.01039 8.47715 4.11041 8.37713C4.21043 8.27711 4.26662 8.14146 4.26662 8.00001C4.26662 7.85856 4.21043 7.7229 4.11041 7.62288C4.01039 7.52287 3.87473 7.46667 3.73328 7.46667H3.19995V8.53334ZM7.46662 7.46667V10.6667H7.99995C8.1414 10.6667 8.27706 10.6105 8.37708 10.5105C8.4771 10.4104 8.53329 10.2748 8.53329 10.1333V8.00001C8.53329 7.85856 8.4771 7.7229 8.37708 7.62288C8.27706 7.52287 8.1414 7.46667 7.99995 7.46667H7.46662Z" fill="white"/>
</g>
</svg>
