<svg width="16" height="16" viewBox="0 0 16 16" fill="none" xmlns="http://www.w3.org/2000/svg">
<g id="Icons 24px">
<path id="Vector" fill-rule="evenodd" clip-rule="evenodd" d="M1.06641 1.6C1.06641 1.17565 1.23498 0.768687 1.53504 0.468629C1.83509 0.168571 2.24206 0 2.66641 0L11.4205 0L14.9331 3.51253V14.4C14.9331 14.8243 14.7645 15.2313 14.4644 15.5314C14.1644 15.8314 13.7574 16 13.3331 16H2.66641C2.24206 16 1.83509 15.8314 1.53504 15.5314C1.23498 15.2313 1.06641 14.8243 1.06641 14.4V1.6ZM3.19974 7.7792V6.4H2.13307V8.2208L2.97894 9.06667L2.13307 9.91253V11.7333H3.19974V10.3541L3.73307 9.8208L4.26641 10.3541V11.7333H5.33307V9.91253L4.48721 9.06667L5.33307 8.2208V6.4H4.26641V7.7792L3.73307 8.31253L3.19974 7.7792ZM6.39974 6.4H7.46641V10.6667H9.59974V11.7333H6.39974V6.4ZM13.8664 6.4H10.6664V9.6H12.7997V10.6667H10.6664V11.7333H13.8664V8.53333H11.7331V7.46667H13.8664V6.4Z" fill="#D8251D"/>
</g>
</svg>
