<svg width="24" height="24" viewBox="0 0 24 24" fill="none" xmlns="http://www.w3.org/2000/svg">
<g id="Property 1=xls, Property 2=white">
<path id="Vector" fill-rule="evenodd" clip-rule="evenodd" d="M1.6001 2.4C1.6001 1.76348 1.85295 1.15303 2.30304 0.702944C2.75313 0.252856 3.36358 0 4.0001 0L17.1313 0L22.4001 5.2688V21.6C22.4001 22.2365 22.1472 22.847 21.6972 23.2971C21.2471 23.7471 20.6366 24 20.0001 24H4.0001C3.36358 24 2.75313 23.7471 2.30304 23.2971C1.85295 22.847 1.6001 22.2365 1.6001 21.6V2.4ZM4.8001 11.6688V9.6H3.2001V12.3312L4.4689 13.6L3.2001 14.8688V17.6H4.8001V15.5312L5.6001 14.7312L6.4001 15.5312V17.6H8.0001V14.8688L6.7313 13.6L8.0001 12.3312V9.6H6.4001V11.6688L5.6001 12.4688L4.8001 11.6688ZM9.6001 9.6H11.2001V16H14.4001V17.6H9.6001V9.6ZM20.8001 9.6H16.0001V14.4H19.2001V16H16.0001V17.6H20.8001V12.8H17.6001V11.2H20.8001V9.6Z" fill="white"/>
</g>
</svg>
