<svg width="239" height="52" viewBox="0 0 239 52" fill="none" xmlns="http://www.w3.org/2000/svg">
<g id="Page-1">
<g id="Group-2">
<g id="Group">
<path id="Oval" d="M26.0612 52C40.4544 52 52.1223 40.3594 52.1223 26C52.1223 11.6406 40.4544 0 26.0612 0C11.668 0 0 11.6406 0 26C0 40.3594 11.668 52 26.0612 52Z" fill="#ECEAEA"/>
<path id="Rectangle-2" fill-rule="evenodd" clip-rule="evenodd" d="M28.5032 6.34149C33.3771 6.34149 39.4094 10.9864 39.4094 17.2936C39.4094 23.6008 35.6825 26.3418 34.2763 27.2379C37.2746 33.1769 38.7738 36.1464 38.7738 36.1464H29.2419V47.7385L21.9873 36.1464H13.9839V6.34149H28.5032ZM27.4092 7.94091H19.7588C20.3807 7.94091 25.4254 11.4579 25.4254 17.2936C25.4254 23.1294 22.4364 25.778 20.2993 27.2379C22.4829 31.5823 24.1635 34.9261 25.3411 37.2692L25.5099 37.6049C25.62 37.824 25.7253 38.0335 25.8258 38.2335L25.973 38.5264C26.4518 39.4789 26.8108 40.1933 27.0501 40.6695L27.1184 40.8052C27.1507 40.8695 27.1803 40.9284 27.2072 40.982L27.2799 41.1267C27.3661 41.2981 27.4092 41.3838 27.4092 41.3838V33.6818L25.4254 30.4194L27.4092 28.224V7.94091Z" fill="#D8251D"/>
</g>
<path id="&#208;&#160;&#208;&#163;&#208;&#161;&#208;&#161;&#208;&#154;&#208;&#152;&#208;&#153;&#208;&#160;&#208;&#149;&#208;&#159;&#208;&#158;&#208;&#160;&#208;&#162;&#208;&#144;&#208;&#150;" d="M68.0323 28.5366V24.5112H69.0643C69.892 24.5112 70.5877 24.4093 71.1515 24.2055C71.7154 24.0016 72.1667 23.7242 72.5055 23.3733C72.8444 23.0224 73.0888 22.6211 73.2388 22.1696C73.3888 21.718 73.4638 21.2445 73.4638 20.7491C73.4638 19.6499 73.1276 18.7867 72.4551 18.1597C71.7826 17.5327 70.7144 17.2192 69.2505 17.2192H65.627V28.5366H68.0323ZM68.8238 22.545H68.0323V19.1854H69.1264C69.7782 19.1854 70.2592 19.3209 70.5696 19.5918C70.88 19.8627 71.0352 20.2769 71.0352 20.8342C71.0352 21.2316 70.9446 21.5567 70.7636 21.8096C70.5825 22.0625 70.3265 22.2483 69.9954 22.367C69.6644 22.4857 69.2738 22.545 68.8238 22.545ZM76.9304 28.6914C77.8201 28.6914 78.5391 28.5533 79.0875 28.2773C79.6358 28.0012 80.0884 27.6038 80.4453 27.0851C80.8023 26.5665 81.1385 25.9459 81.454 25.2234L84.969 17.2192H82.486L80.5152 21.9722C80.4531 22.127 80.3833 22.3012 80.3057 22.4947C80.2281 22.6882 80.1544 22.8766 80.0845 23.0598C80.0147 23.243 79.9591 23.3991 79.9177 23.5281H79.8324C79.791 23.3939 79.7328 23.2378 79.6578 23.0598C79.5828 22.8817 79.5078 22.7063 79.4328 22.5334C79.3577 22.3605 79.297 22.2225 79.2504 22.1193L77.1321 17.2192H74.5871L78.5133 25.3473C78.4253 25.595 78.3167 25.8195 78.1874 26.0207C78.0581 26.222 77.8848 26.382 77.6675 26.5007C77.4503 26.6194 77.1658 26.6787 76.814 26.6787C76.545 26.6787 76.2592 26.6568 75.9566 26.6129C75.654 26.5691 75.3734 26.4981 75.1147 26.4V28.4592C75.3941 28.5366 75.6967 28.5946 76.0226 28.6333C76.3484 28.672 76.6511 28.6914 76.9304 28.6914ZM91.2444 28.6914C91.8496 28.6914 92.3954 28.6462 92.8816 28.5559C93.3679 28.4656 93.8619 28.3172 94.3636 28.1108V26.0981C93.8205 26.2891 93.3174 26.4362 92.8545 26.5394C92.3915 26.6426 91.9298 26.6942 91.4694 26.6942C90.8073 26.6942 90.2668 26.5458 89.8478 26.2491C89.4288 25.9524 89.1197 25.5214 88.9205 24.9563C88.7214 24.3912 88.6218 23.7087 88.6218 22.9088C88.6218 22.3154 88.6839 21.7812 88.808 21.3064C88.9322 20.8317 89.1145 20.4265 89.355 20.0911C89.5956 19.7557 89.893 19.4989 90.2474 19.3209C90.6017 19.1428 91.0091 19.0538 91.4694 19.0538C91.8833 19.0538 92.3049 19.1286 92.7342 19.2783C93.1635 19.4279 93.5903 19.6034 94.0145 19.8047L94.7904 17.8539C94.2731 17.6062 93.7313 17.4114 93.1648 17.2695C92.5984 17.1276 92.0333 17.0566 91.4694 17.0566C90.6107 17.0566 89.8503 17.1985 89.1882 17.4824C88.5261 17.7662 87.97 18.1687 87.52 18.69C87.0699 19.2112 86.7285 19.8279 86.4958 20.5401C86.263 21.2523 86.1466 22.0367 86.1466 22.8934C86.1466 24.0545 86.3276 25.0699 86.6897 25.9395C87.0518 26.809 87.6092 27.4851 88.3619 27.9676C89.1145 28.4501 90.0754 28.6914 91.2444 28.6914ZM101.625 28.6914C102.23 28.6914 102.775 28.6462 103.262 28.5559C103.748 28.4656 104.242 28.3172 104.744 28.1108V26.0981C104.201 26.2891 103.698 26.4362 103.235 26.5394C102.772 26.6426 102.31 26.6942 101.85 26.6942C101.187 26.6942 100.647 26.5458 100.228 26.2491C99.8088 25.9524 99.4998 25.5214 99.3006 24.9563C99.1014 24.3912 99.0019 23.7087 99.0019 22.9088C99.0019 22.3154 99.0639 21.7812 99.1881 21.3064C99.3122 20.8317 99.4946 20.4265 99.7351 20.0911C99.9757 19.7557 100.273 19.4989 100.627 19.3209C100.982 19.1428 101.389 19.0538 101.85 19.0538C102.263 19.0538 102.685 19.1286 103.114 19.2783C103.544 19.4279 103.97 19.6034 104.395 19.8047L105.17 17.8539C104.653 17.6062 104.111 17.4114 103.545 17.2695C102.978 17.1276 102.413 17.0566 101.85 17.0566C100.991 17.0566 100.23 17.1985 99.5683 17.4824C98.9062 17.7662 98.3501 18.1687 97.9001 18.69C97.45 19.2112 97.1086 19.8279 96.8758 20.5401C96.6431 21.2523 96.5267 22.0367 96.5267 22.8934C96.5267 24.0545 96.7077 25.0699 97.0698 25.9395C97.4319 26.809 97.9893 27.4851 98.7419 27.9676C99.4946 28.4501 100.455 28.6914 101.625 28.6914ZM109.816 28.5366V22.8005L113.929 28.5366H116.66L112.307 22.6534L116.443 17.2192H113.882L109.816 22.6998V17.2192H107.411V28.5366H109.816ZM121.236 28.5366L126.497 19.8666H126.559L126.553 19.9522C126.548 20.0396 126.539 20.1672 126.528 20.3349C126.513 20.5698 126.496 20.8471 126.478 21.1671C126.46 21.4871 126.445 21.8174 126.435 22.158C126.425 22.4986 126.419 22.8134 126.419 23.1024V28.5366H128.561V17.2192H125.682L120.445 25.8117H120.398C120.409 25.7343 120.419 25.5795 120.429 25.3473C120.44 25.115 120.451 24.8428 120.464 24.5306C120.477 24.2184 120.488 23.8997 120.495 23.5746C120.503 23.2494 120.507 22.9527 120.507 22.6843V17.2192H118.342V28.5366H121.236ZM136.994 16.267C137.904 16.267 138.628 16.1509 139.166 15.9187C139.704 15.6864 140.1 15.3613 140.353 14.9433C140.607 14.5253 140.762 14.0428 140.819 13.4957H138.677C138.62 14.0428 138.447 14.4195 138.157 14.6259C137.868 14.8323 137.495 14.9356 137.04 14.9356C136.492 14.9356 136.093 14.8414 135.845 14.653C135.597 14.4646 135.449 14.0789 135.403 13.4957H133.285C133.331 14.0634 133.466 14.555 133.688 14.9704C133.911 15.3858 134.283 15.7058 134.805 15.9303C135.328 16.1548 136.057 16.267 136.994 16.267ZM134.573 28.5366L139.833 19.8666H139.896L139.882 20.0764C139.877 20.1481 139.871 20.2343 139.864 20.3349C139.849 20.5698 139.832 20.8471 139.814 21.1671C139.796 21.4871 139.782 21.8174 139.771 22.158C139.761 22.4986 139.756 22.8134 139.756 23.1024V28.5366H141.897V17.2192H139.019L133.781 25.8117H133.735C133.745 25.7343 133.755 25.5795 133.766 25.3473C133.776 25.115 133.788 24.8428 133.801 24.5306C133.814 24.2184 133.824 23.8997 133.832 23.5746C133.839 23.2494 133.843 22.9527 133.843 22.6843V17.2192H131.678V28.5366H134.573ZM151.802 28.5366V24.5112H152.834C153.662 24.5112 154.358 24.4093 154.922 24.2055C155.485 24.0016 155.937 23.7242 156.276 23.3733C156.614 23.0224 156.859 22.6211 157.009 22.1696C157.159 21.718 157.234 21.2445 157.234 20.7491C157.234 19.6499 156.898 18.7867 156.225 18.1597C155.553 17.5327 154.484 17.2192 153.021 17.2192H149.397V28.5366H151.802ZM152.594 22.545H151.802V19.1854H152.896C153.548 19.1854 154.029 19.3209 154.34 19.5918C154.65 19.8627 154.805 20.2769 154.805 20.8342C154.805 21.2316 154.715 21.5567 154.534 21.8096C154.353 22.0625 154.097 22.2483 153.765 22.367C153.434 22.4857 153.044 22.545 152.594 22.545ZM166.163 28.5366V26.5549H162.035V23.6365H165.876V21.6703H162.035V19.1854H166.163V17.2192H159.63V28.5366H166.163ZM171.189 28.5366V19.2164H175.364V28.5366H177.761V17.2192H168.784V28.5366H171.189ZM185.775 28.6914C186.701 28.6914 187.502 28.5533 188.18 28.2773C188.858 28.0012 189.418 27.6051 189.86 27.089C190.302 26.5729 190.632 25.9575 190.849 25.2428C191.067 24.528 191.175 23.7345 191.175 22.8624C191.175 21.6858 190.983 20.6614 190.597 19.7892C190.212 18.917 189.622 18.241 188.828 17.761C188.034 17.2811 187.021 17.0411 185.79 17.0411C184.554 17.0411 183.535 17.2811 182.733 17.761C181.931 18.241 181.338 18.9157 180.952 19.7853C180.567 20.6549 180.374 21.6754 180.374 22.8469C180.374 23.7242 180.483 24.5216 180.7 25.2389C180.917 25.9562 181.247 26.5729 181.69 27.089C182.132 27.6051 182.692 28.0012 183.369 28.2773C184.047 28.5533 184.849 28.6914 185.775 28.6914ZM185.775 26.6787C185.102 26.6787 184.554 26.5252 184.13 26.2181C183.706 25.9111 183.394 25.4724 183.195 24.9022C182.996 24.3319 182.896 23.652 182.896 22.8624C182.896 22.0676 182.996 21.3851 183.195 20.8149C183.394 20.2446 183.707 19.806 184.134 19.4989C184.56 19.1918 185.113 19.0383 185.79 19.0383C186.809 19.0383 187.541 19.3789 187.986 20.0601C188.431 20.7413 188.653 21.6754 188.653 22.8624C188.653 23.652 188.556 24.3319 188.362 24.9022C188.168 25.4724 187.859 25.9111 187.435 26.2181C187.011 26.5252 186.458 26.6787 185.775 26.6787ZM196.186 28.5366V24.5112H197.218C198.046 24.5112 198.741 24.4093 199.305 24.2055C199.869 24.0016 200.32 23.7242 200.659 23.3733C200.998 23.0224 201.242 22.6211 201.392 22.1696C201.542 21.718 201.617 21.2445 201.617 20.7491C201.617 19.6499 201.281 18.7867 200.609 18.1597C199.936 17.5327 198.868 17.2192 197.404 17.2192H193.781V28.5366H196.186ZM196.977 22.545H196.186V19.1854H197.28C197.932 19.1854 198.413 19.3209 198.723 19.5918C199.034 19.8627 199.189 20.2769 199.189 20.8342C199.189 21.2316 199.098 21.5567 198.917 21.8096C198.736 22.0625 198.48 22.2483 198.149 22.367C197.818 22.4857 197.427 22.545 196.977 22.545ZM208.389 28.5366V19.2164H211.47V17.2192H202.904V19.2164H205.984V28.5366H208.389ZM214.634 28.5366L215.456 25.8427H219.592L220.414 28.5366H223.006L218.987 17.1727H216.046L212.042 28.5366H214.634ZM219.018 23.83H216.061L216.876 21.1981C216.912 21.0794 216.972 20.8807 217.055 20.602C217.137 20.3233 217.224 20.0279 217.315 19.7157C217.405 19.4034 217.476 19.1415 217.528 18.9299C217.58 19.1415 217.648 19.3905 217.734 19.677C217.819 19.9634 217.904 20.2446 217.99 20.5207C218.075 20.7968 218.144 21.0226 218.195 21.1981L219.018 23.83ZM225.836 28.5366L229.631 22.8005V28.5366H231.873V22.8005L235.667 28.5366H238.243L234.209 22.6534L238.026 17.2192H235.543L231.873 22.6998V17.2192H229.631V22.6998L225.961 17.2192H223.485L227.295 22.6534L223.26 28.5366H225.836Z" fill="white"/>
<path id="&#208;&#162;&#208;&#149;&#208;&#155;&#208;&#149;&#208;&#146;&#208;&#152;&#208;&#151;&#208;&#152;&#208;&#158;&#208;&#157;&#208;&#157;&#208;&#158;&#208;&#149;&#208;&#144;&#208;&#147;&#208;&#149;&#208;&#157;&#208;&#162;&#208;&#161;&#208;&#162;&#208;&#146;&#208;&#158;" d="M151.257 38.0488V34.6935H152.366V33.9745H149.282V34.6935H150.391V38.0488H151.257ZM155.473 38.0488V37.3353H153.987V36.2847H155.37V35.5769H153.987V34.6823H155.473V33.9745H153.121V38.0488H155.473ZM156.396 38.1045C156.625 38.1045 156.811 38.0608 156.954 37.9735C157.096 37.8862 157.209 37.7594 157.292 37.5931C157.375 37.4268 157.44 37.2248 157.489 36.987C157.518 36.8439 157.549 36.6777 157.579 36.4882C157.61 36.2987 157.639 36.0989 157.667 35.889C157.695 35.6791 157.722 35.471 157.748 35.2648C157.774 35.0586 157.799 34.8681 157.821 34.6935H158.821V38.0488H159.684V33.9745H157.106C157.071 34.268 157.034 34.5504 156.996 34.8217C156.957 35.0929 156.921 35.3433 156.885 35.5727C156.85 35.8022 156.818 36.0019 156.79 36.1719C156.762 36.3419 156.74 36.4733 156.723 36.5662C156.684 36.778 156.645 36.9438 156.606 37.0636C156.567 37.1835 156.523 37.268 156.473 37.3172C156.424 37.3665 156.362 37.3911 156.287 37.3911C156.23 37.3911 156.177 37.386 156.128 37.3758C156.08 37.3655 156.031 37.3521 155.983 37.3353V38.0432C156.043 38.0618 156.107 38.0766 156.177 38.0878C156.247 38.0989 156.32 38.1045 156.396 38.1045ZM163.194 38.0488V37.3353H161.708V36.2847H163.091V35.5769H161.708V34.6823H163.194V33.9745H160.842V38.0488H163.194ZM165.701 38.0488C166.01 38.0488 166.277 38.0019 166.501 37.908C166.726 37.8142 166.898 37.679 167.02 37.5026C167.141 37.3261 167.201 37.1143 167.201 36.8672C167.201 36.6535 167.168 36.4821 167.102 36.353C167.036 36.2239 166.948 36.1254 166.838 36.0576C166.728 35.9898 166.605 35.942 166.469 35.9141V35.8862C166.603 35.8621 166.717 35.8101 166.81 35.7302C166.903 35.6503 166.974 35.5481 167.024 35.4236C167.073 35.2991 167.098 35.1598 167.098 35.0056C167.098 34.6229 166.958 34.3554 166.679 34.203C166.399 34.0507 165.988 33.9745 165.444 33.9745H164.173V38.0488H165.701ZM165.542 35.588H165.039V34.6823H165.494C165.742 34.6823 165.923 34.7162 166.038 34.7841C166.152 34.8519 166.209 34.9638 166.209 35.1199C166.209 35.2741 166.161 35.3906 166.064 35.4696C165.967 35.5486 165.793 35.588 165.542 35.588ZM165.603 37.3353H165.039V36.2736H165.575C165.76 36.2736 165.905 36.295 166.01 36.3377C166.115 36.3804 166.19 36.4399 166.235 36.516C166.279 36.5922 166.302 36.6805 166.302 36.7808C166.302 36.9498 166.25 37.0845 166.148 37.1849C166.046 37.2852 165.864 37.3353 165.603 37.3353ZM169.186 38.0488L171.08 34.9276H171.102C171.1 34.9554 171.096 35.0116 171.091 35.0962C171.085 35.1807 171.079 35.2806 171.073 35.3958C171.066 35.5109 171.061 35.6298 171.057 35.7525C171.054 35.8751 171.052 35.9884 171.052 36.0924V38.0488H171.823V33.9745H170.786L168.901 37.0678H168.884C168.888 37.0399 168.892 36.9842 168.895 36.9006C168.899 36.817 168.903 36.719 168.908 36.6066C168.913 36.4942 168.916 36.3795 168.919 36.2624C168.922 36.1454 168.923 36.0386 168.923 35.942V33.9745H168.144V38.0488H169.186ZM174.207 38.1045C174.583 38.1045 174.899 38.0529 175.154 37.9498C175.409 37.8467 175.602 37.7037 175.732 37.5207C175.862 37.3377 175.928 37.1273 175.928 36.8895C175.928 36.6182 175.827 36.3981 175.626 36.229C175.425 36.0599 175.138 35.9568 174.766 35.9197V35.9029C175.065 35.8602 175.313 35.7552 175.509 35.588C175.704 35.4208 175.802 35.2007 175.802 34.9276C175.802 34.7306 175.744 34.5565 175.627 34.4051C175.511 34.2536 175.344 34.1343 175.126 34.047C174.908 33.9596 174.645 33.916 174.338 33.916C174.103 33.916 173.891 33.9341 173.701 33.9703C173.511 34.0065 173.337 34.0581 173.177 34.125C173.018 34.1919 172.869 34.2708 172.729 34.3619L173.106 34.9387C173.266 34.8384 173.439 34.758 173.623 34.6977C173.807 34.6373 174.006 34.6071 174.218 34.6071C174.464 34.6071 174.649 34.6484 174.774 34.7311C174.899 34.8138 174.961 34.9248 174.961 35.0641C174.961 35.1756 174.925 35.2708 174.853 35.3498C174.782 35.4287 174.656 35.4891 174.476 35.5309C174.297 35.5727 174.045 35.5936 173.721 35.5936H173.377V36.268H173.76C174.16 36.268 174.479 36.3126 174.715 36.4018C174.952 36.491 175.07 36.6331 175.07 36.8282C175.07 37.0195 174.989 37.1672 174.826 37.2713C174.663 37.3753 174.401 37.4273 174.039 37.4273C173.909 37.4273 173.767 37.4166 173.615 37.3953C173.462 37.3739 173.312 37.3432 173.164 37.3033C173.015 37.2634 172.882 37.2155 172.763 37.1598V37.8843C172.938 37.9549 173.145 38.0093 173.384 38.0474C173.623 38.0855 173.898 38.1045 174.207 38.1045ZM177.856 38.0488L179.75 34.9276H179.773C179.771 34.9554 179.767 35.0116 179.761 35.0962C179.756 35.1807 179.75 35.2806 179.743 35.3958C179.737 35.5109 179.732 35.6298 179.728 35.7525C179.724 35.8751 179.722 35.9884 179.722 36.0924V38.0488H180.493V33.9745H179.457L177.571 37.0678H177.555C177.558 37.0399 177.562 36.9842 177.566 36.9006C177.57 36.817 177.574 36.719 177.578 36.6066C177.583 36.4942 177.587 36.3795 177.59 36.2624C177.592 36.1454 177.594 36.0386 177.594 35.942V33.9745H176.814V38.0488H177.856ZM183.414 38.1045C183.747 38.1045 184.036 38.0548 184.28 37.9554C184.524 37.856 184.725 37.7134 184.884 37.5276C185.044 37.3418 185.162 37.1203 185.241 36.863C185.319 36.6057 185.358 36.32 185.358 36.0061C185.358 35.5825 185.289 35.2137 185.15 34.8997C185.011 34.5857 184.799 34.3424 184.513 34.1696C184.227 33.9968 183.863 33.9104 183.419 33.9104C182.974 33.9104 182.607 33.9968 182.319 34.1696C182.03 34.3424 181.816 34.5853 181.678 34.8983C181.539 35.2114 181.47 35.5787 181.47 36.0005C181.47 36.3163 181.509 36.6034 181.587 36.8616C181.665 37.1198 181.784 37.3418 181.943 37.5276C182.102 37.7134 182.304 37.856 182.548 37.9554C182.792 38.0548 183.08 38.1045 183.414 38.1045ZM183.414 37.3799C183.172 37.3799 182.974 37.3247 182.822 37.2141C182.669 37.1036 182.557 36.9457 182.485 36.7404C182.413 36.5351 182.377 36.2903 182.377 36.0061C182.377 35.7199 182.413 35.4742 182.485 35.269C182.557 35.0637 182.669 34.9057 182.823 34.7952C182.977 34.6847 183.175 34.6294 183.419 34.6294C183.786 34.6294 184.05 34.752 184.21 34.9972C184.37 35.2425 184.45 35.5787 184.45 36.0061C184.45 36.2903 184.415 36.5351 184.345 36.7404C184.275 36.9457 184.164 37.1036 184.011 37.2141C183.859 37.3247 183.66 37.3799 183.414 37.3799ZM187.197 38.0488V36.2903H188.815V38.0488H189.678V33.9745H188.815V35.5713H187.197V33.9745H186.331V38.0488H187.197ZM191.702 38.0488V36.2903H193.319V38.0488H194.182V33.9745H193.319V35.5713H191.702V33.9745H190.836V38.0488H191.702ZM197.103 38.1045C197.436 38.1045 197.725 38.0548 197.968 37.9554C198.212 37.856 198.414 37.7134 198.573 37.5276C198.732 37.3418 198.851 37.1203 198.929 36.863C199.008 36.6057 199.047 36.32 199.047 36.0061C199.047 35.5825 198.977 35.2137 198.839 34.8997C198.7 34.5857 198.488 34.3424 198.202 34.1696C197.916 33.9968 197.551 33.9104 197.108 33.9104C196.663 33.9104 196.296 33.9968 196.008 34.1696C195.719 34.3424 195.505 34.5853 195.366 34.8983C195.228 35.2114 195.158 35.5787 195.158 36.0005C195.158 36.3163 195.197 36.6034 195.276 36.8616C195.354 37.1198 195.473 37.3418 195.632 37.5276C195.791 37.7134 195.993 37.856 196.237 37.9554C196.481 38.0548 196.769 38.1045 197.103 38.1045ZM197.103 37.3799C196.86 37.3799 196.663 37.3247 196.51 37.2141C196.358 37.1036 196.245 36.9457 196.174 36.7404C196.102 36.5351 196.066 36.2903 196.066 36.0061C196.066 35.7199 196.102 35.4742 196.174 35.269C196.245 35.0637 196.358 34.9057 196.512 34.7952C196.665 34.6847 196.864 34.6294 197.108 34.6294C197.475 34.6294 197.738 34.752 197.899 34.9972C198.059 35.2425 198.139 35.5787 198.139 36.0061C198.139 36.2903 198.104 36.5351 198.034 36.7404C197.964 36.9457 197.853 37.1036 197.7 37.2141C197.548 37.3247 197.348 37.3799 197.103 37.3799ZM202.372 38.0488V37.3353H200.886V36.2847H202.269V35.5769H200.886V34.6823H202.372V33.9745H200.02V38.0488H202.372ZM205.383 38.0488L205.68 37.079H207.168L207.465 38.0488H208.397L206.951 33.9578H205.892L204.45 38.0488H205.383ZM206.962 36.3544H205.897L206.191 35.4069C206.204 35.3642 206.225 35.2926 206.255 35.1923C206.285 35.092 206.316 34.9856 206.349 34.8732C206.381 34.7608 206.407 34.6665 206.425 34.5904C206.444 34.6665 206.469 34.7562 206.499 34.8593C206.53 34.9624 206.561 35.0637 206.592 35.1631C206.622 35.2625 206.647 35.3437 206.666 35.4069L206.962 36.3544ZM209.904 38.0488V34.6879H211.62V33.9745H209.039V38.0488H209.904ZM214.727 38.0488V37.3353H213.241V36.2847H214.624V35.5769H213.241V34.6823H214.727V33.9745H212.375V38.0488H214.727ZM216.572 38.0488V36.2903H218.19V38.0488H219.053V33.9745H218.19V35.5713H216.572V33.9745H215.706V38.0488H216.572ZM221.786 38.0488V34.6935H222.895V33.9745H219.811V34.6935H220.92V38.0488H221.786ZM225.304 38.1045C225.522 38.1045 225.719 38.0882 225.894 38.0557C226.069 38.0232 226.247 37.9698 226.427 37.8955V37.1709C226.232 37.2397 226.051 37.2926 225.884 37.3298C225.717 37.3669 225.551 37.3855 225.385 37.3855C225.147 37.3855 224.952 37.3321 224.801 37.2253C224.651 37.1184 224.539 36.9633 224.468 36.7599C224.396 36.5564 224.36 36.3107 224.36 36.0228C224.36 35.8091 224.382 35.6168 224.427 35.4459C224.472 35.275 224.538 35.1291 224.624 35.0084C224.711 34.8876 224.818 34.7952 224.945 34.7311C225.073 34.667 225.22 34.635 225.385 34.635C225.534 34.635 225.686 34.6619 225.841 34.7158C225.995 34.7697 226.149 34.8328 226.301 34.9053L226.581 34.203C226.395 34.1138 226.2 34.0437 225.996 33.9926C225.792 33.9415 225.588 33.916 225.385 33.916C225.076 33.916 224.802 33.9671 224.564 34.0692C224.326 34.1714 224.125 34.3163 223.963 34.504C223.801 34.6916 223.679 34.9136 223.595 35.17C223.511 35.4264 223.469 35.7088 223.469 36.0172C223.469 36.4352 223.534 36.8008 223.665 37.1138C223.795 37.4268 223.996 37.6702 224.267 37.8439C224.538 38.0176 224.883 38.1045 225.304 38.1045ZM228.998 38.0488V34.6935H230.107V33.9745H227.024V34.6935H228.133V38.0488H228.998ZM232.391 38.0488C232.7 38.0488 232.967 38.0019 233.191 37.908C233.416 37.8142 233.588 37.679 233.709 37.5026C233.831 37.3261 233.891 37.1143 233.891 36.8672C233.891 36.6535 233.858 36.4821 233.792 36.353C233.726 36.2239 233.638 36.1254 233.528 36.0576C233.418 35.9898 233.295 35.942 233.159 35.9141V35.8862C233.293 35.8621 233.407 35.8101 233.5 35.7302C233.593 35.6503 233.664 35.5481 233.714 35.4236C233.763 35.2991 233.788 35.1598 233.788 35.0056C233.788 34.6229 233.648 34.3554 233.369 34.203C233.089 34.0507 232.678 33.9745 232.134 33.9745H230.863V38.0488H232.391ZM232.232 35.588H231.729V34.6823H232.184C232.432 34.6823 232.613 34.7162 232.728 34.7841C232.842 34.8519 232.899 34.9638 232.899 35.1199C232.899 35.2741 232.851 35.3906 232.754 35.4696C232.657 35.5486 232.483 35.588 232.232 35.588ZM232.293 37.3353H231.729V36.2736H232.265C232.45 36.2736 232.594 36.295 232.7 36.3377C232.805 36.3804 232.88 36.4399 232.925 36.516C232.969 36.5922 232.992 36.6805 232.992 36.7808C232.992 36.9498 232.94 37.0845 232.838 37.1849C232.736 37.2852 232.554 37.3353 232.293 37.3353ZM236.596 38.1045C236.93 38.1045 237.218 38.0548 237.462 37.9554C237.706 37.856 237.908 37.7134 238.067 37.5276C238.226 37.3418 238.345 37.1203 238.423 36.863C238.501 36.6057 238.541 36.32 238.541 36.0061C238.541 35.5825 238.471 35.2137 238.332 34.8997C238.194 34.5857 237.981 34.3424 237.696 34.1696C237.41 33.9968 237.045 33.9104 236.602 33.9104C236.157 33.9104 235.79 33.9968 235.501 34.1696C235.213 34.3424 234.999 34.5853 234.86 34.8983C234.722 35.2114 234.652 35.5787 234.652 36.0005C234.652 36.3163 234.691 36.6034 234.77 36.8616C234.848 37.1198 234.966 37.3418 235.126 37.5276C235.285 37.7134 235.487 37.856 235.73 37.9554C235.974 38.0548 236.263 38.1045 236.596 38.1045ZM236.596 37.3799C236.354 37.3799 236.157 37.3247 236.004 37.2141C235.852 37.1036 235.739 36.9457 235.668 36.7404C235.596 36.5351 235.56 36.2903 235.56 36.0061C235.56 35.7199 235.596 35.4742 235.668 35.269C235.739 35.0637 235.852 34.9057 236.006 34.7952C236.159 34.6847 236.358 34.6294 236.602 34.6294C236.969 34.6294 237.232 34.752 237.393 34.9972C237.553 35.2425 237.633 35.5787 237.633 36.0061C237.633 36.2903 237.598 36.5351 237.528 36.7404C237.458 36.9457 237.347 37.1036 237.194 37.2141C237.041 37.3247 236.842 37.3799 236.596 37.3799Z" fill="white"/>
</g>
</g>
</svg>
