<svg width="90" height="91" viewBox="0 0 90 91" fill="none" xmlns="http://www.w3.org/2000/svg">
<g id="Group">
<path id="Oval" d="M45 90.6989C69.8528 90.6989 90 70.5173 90 45.6219C90 20.7266 69.8528 0.544922 45 0.544922C20.1472 0.544922 0 20.7266 0 45.6219C0 70.5173 20.1472 90.6989 45 90.6989Z" fill="white"/>
<path id="Rectangle-2" fill-rule="evenodd" clip-rule="evenodd" d="M49.2166 11.5391C57.6323 11.5391 68.0484 19.5922 68.0484 30.5271C68.0484 41.4621 61.6131 46.2142 59.1851 47.7677C64.3623 58.0644 66.9509 63.2127 66.9509 63.2127H50.4921V83.3103L37.9655 63.2127H24.146V11.5391H49.2166ZM47.3276 14.312H34.1176C35.1915 14.312 43.9021 20.4095 43.9021 30.5271C43.9021 40.6447 38.741 45.2368 35.0509 47.7677C38.8213 55.2999 41.7232 61.0971 43.7566 65.1593L44.048 65.7414C44.2381 66.1212 44.42 66.4845 44.5936 66.8313L44.8477 67.3391C45.6743 68.9904 46.2943 70.2289 46.7076 71.0546L46.8254 71.2899C46.8812 71.4013 46.9323 71.5035 46.9788 71.5964L47.1044 71.8472C47.2532 72.1444 47.3276 72.2931 47.3276 72.2931V58.9398L43.9021 53.2837L47.3276 49.4774V14.312Z" fill="#D8251D"/>
</g>
</svg>
