<svg width="48" height="78" viewBox="0 0 48 78" fill="none" xmlns="http://www.w3.org/2000/svg">
<path id="Rectangle-2" fill-rule="evenodd" clip-rule="evenodd" d="M27.4105 0C36.6117 0 48 8.75199 48 20.636C48 32.5199 40.9641 37.6845 38.3094 39.3729C43.9698 50.5631 46.8 56.1582 46.8 56.1582H28.805V78L15.1093 56.1582H0V0H27.4105ZM25.3452 3.01362H10.9023C12.0764 3.01362 21.6 9.64028 21.6 20.636C21.6 31.6316 15.9572 36.6222 11.9227 39.3729C16.045 47.5587 19.2177 53.859 21.441 58.2738L21.7595 58.9064C21.9674 59.3192 22.1662 59.714 22.356 60.0909L22.6339 60.6427C23.5377 62.4374 24.2155 63.7833 24.6674 64.6807L24.7961 64.9364C24.8571 65.0575 24.9131 65.1686 24.9639 65.2695L25.1012 65.5421C25.2638 65.8651 25.3452 66.0266 25.3452 66.0266V51.5145L21.6 45.3675L25.3452 41.2309V3.01362Z" fill="#D8251D"/>
</svg>
