<svg width="210" height="46" viewBox="0 0 210 46" fill="none" xmlns="http://www.w3.org/2000/svg">
<g id="Page-1">
<g id="Group-2">
<g id="Group">
<path id="Oval" d="M22.8989 46C35.5457 46 45.7979 35.7025 45.7979 23C45.7979 10.2975 35.5457 0 22.8989 0C10.2522 0 0 10.2975 0 23C0 35.7025 10.2522 46 22.8989 46Z" fill="white"/>
<path id="Rectangle-2" fill-rule="evenodd" clip-rule="evenodd" d="M25.0448 5.60986C29.3273 5.60986 34.6277 9.71886 34.6277 15.2983C34.6277 20.8777 31.353 23.3024 30.1174 24.0951C32.7519 29.3489 34.0691 31.9757 34.0691 31.9757H25.6938V42.2303L19.3195 31.9757H12.2872V5.60986H25.0448ZM24.0835 7.02473H17.3614C17.9079 7.02473 22.3404 10.1359 22.3404 15.2983C22.3404 20.4607 19.7141 22.8037 17.8364 24.0951C19.755 27.9383 21.2316 30.8962 22.2664 32.969L22.4147 33.266C22.5114 33.4598 22.604 33.6451 22.6923 33.8221L22.8216 34.0812C23.2423 34.9237 23.5577 35.5557 23.768 35.9769L23.828 36.097C23.8564 36.1539 23.8824 36.206 23.9061 36.2534L23.97 36.3814C24.0457 36.533 24.0835 36.6089 24.0835 36.6089V29.7955L22.3404 26.9095L24.0835 24.9675V7.02473Z" fill="#D8251D"/>
</g>
<path id="&#208;&#160;&#208;&#163;&#208;&#161;&#208;&#161;&#208;&#154;&#208;&#152;&#208;&#153;&#208;&#160;&#208;&#149;&#208;&#159;&#208;&#158;&#208;&#160;&#208;&#162;&#208;&#144;&#208;&#150;" d="M59.7776 25.2438V21.683H60.6843C61.4115 21.683 62.0229 21.5928 62.5183 21.4125C63.0137 21.2321 63.4103 20.9868 63.708 20.6763C64.0057 20.3659 64.2205 20.0109 64.3523 19.6115C64.4841 19.212 64.55 18.7932 64.55 18.3549C64.55 17.3825 64.2545 16.619 63.6637 16.0643C63.0728 15.5096 62.1342 15.2323 60.8479 15.2323H57.664V25.2438H59.7776ZM60.473 19.9436H59.7776V16.9716H60.7389C61.3115 16.9716 61.7342 17.0915 62.007 17.3312C62.2797 17.5708 62.416 17.9372 62.416 18.4302C62.416 18.7818 62.3365 19.0694 62.1774 19.2931C62.0183 19.5168 61.7933 19.6811 61.5024 19.7861C61.2116 19.8911 60.8684 19.9436 60.473 19.9436ZM67.5959 25.3808C68.3777 25.3808 69.0095 25.2587 69.4913 25.0144C69.9731 24.7702 70.3708 24.4187 70.6844 23.9599C70.998 23.5011 71.2934 22.9521 71.5707 22.313L74.6591 15.2323H72.4774L70.7457 19.4369C70.6912 19.5738 70.6298 19.7279 70.5617 19.8991C70.4935 20.0703 70.4287 20.2369 70.3674 20.399C70.306 20.5611 70.2571 20.6992 70.2208 20.8133H70.1458C70.1094 20.6946 70.0583 20.5565 69.9924 20.399C69.9265 20.2415 69.8606 20.0863 69.7947 19.9333C69.7288 19.7804 69.6754 19.6583 69.6344 19.567L67.7732 15.2323H65.537L68.9868 22.4225C68.9095 22.6417 68.814 22.8402 68.7004 23.0183C68.5868 23.1963 68.4345 23.3379 68.2436 23.4429C68.0527 23.5479 67.8027 23.6004 67.4937 23.6004C67.2573 23.6004 67.0062 23.581 66.7403 23.5422C66.4744 23.5033 66.2278 23.4406 66.0006 23.3538V25.1754C66.246 25.2438 66.5119 25.2952 66.7983 25.3294C67.0846 25.3637 67.3505 25.3808 67.5959 25.3808ZM80.1731 25.3808C80.7049 25.3808 81.1844 25.3409 81.6117 25.261C82.0389 25.1811 82.473 25.0498 82.9139 24.8672V23.0868C82.4366 23.2557 81.9946 23.3858 81.5878 23.4771C81.181 23.5684 80.7754 23.6141 80.3708 23.6141C79.789 23.6141 79.3141 23.4828 78.9459 23.2203C78.5778 22.9578 78.3062 22.5766 78.1312 22.0767C77.9562 21.5768 77.8687 20.9731 77.8687 20.2655C77.8687 19.7405 77.9233 19.268 78.0323 18.848C78.1414 18.428 78.3016 18.0696 78.513 17.7728C78.7243 17.4761 78.9857 17.249 79.297 17.0915C79.6084 16.934 79.9663 16.8552 80.3708 16.8552C80.7344 16.8552 81.1049 16.9214 81.4821 17.0538C81.8594 17.1862 82.2344 17.3414 82.6071 17.5195L83.2888 15.7938C82.8343 15.5747 82.3582 15.4023 81.8605 15.2768C81.3628 15.1513 80.8663 15.0885 80.3708 15.0885C79.6163 15.0885 78.9482 15.214 78.3664 15.4651C77.7846 15.7162 77.296 16.0723 76.9006 16.5334C76.5052 16.9945 76.2052 17.54 76.0007 18.17C75.7961 18.8 75.6939 19.4939 75.6939 20.2518C75.6939 21.2789 75.8529 22.1771 76.1711 22.9464C76.4893 23.7156 76.979 24.3137 77.6403 24.7405C78.3016 25.1674 79.1459 25.3808 80.1731 25.3808ZM89.2937 25.3808C89.8255 25.3808 90.305 25.3409 90.7322 25.261C91.1595 25.1811 91.5935 25.0498 92.0344 24.8672V23.0868C91.5572 23.2557 91.1152 23.3858 90.7084 23.4771C90.3016 23.5684 89.8959 23.6141 89.4914 23.6141C88.9096 23.6141 88.4347 23.4828 88.0665 23.2203C87.6983 22.9578 87.4268 22.5766 87.2518 22.0767C87.0768 21.5768 86.9893 20.9731 86.9893 20.2655C86.9893 19.7405 87.0438 19.268 87.1529 18.848C87.262 18.428 87.4222 18.0696 87.6336 17.7728C87.8449 17.4761 88.1063 17.249 88.4176 17.0915C88.729 16.934 89.0869 16.8552 89.4914 16.8552C89.855 16.8552 90.2254 16.9214 90.6027 17.0538C90.9799 17.1862 91.3549 17.3414 91.7276 17.5195L92.4094 15.7938C91.9549 15.5747 91.4788 15.4023 90.9811 15.2768C90.4834 15.1513 89.9868 15.0885 89.4914 15.0885C88.7369 15.0885 88.0688 15.214 87.487 15.4651C86.9052 15.7162 86.4166 16.0723 86.0212 16.5334C85.6257 16.9945 85.3258 17.54 85.1212 18.17C84.9167 18.8 84.8144 19.4939 84.8144 20.2518C84.8144 21.2789 84.9735 22.1771 85.2917 22.9464C85.6098 23.7156 86.0996 24.3137 86.7609 24.7405C87.4222 25.1674 88.2665 25.3808 89.2937 25.3808ZM96.4917 25.2438V20.1696L100.105 25.2438H102.505L98.6802 20.0395L102.314 15.2323H100.064L96.4917 20.0806V15.2323H94.3782V25.2438H96.4917ZM106.526 25.2438L111.148 17.5743H111.203L111.198 17.65C111.193 17.7273 111.185 17.8402 111.176 17.9885C111.162 18.1963 111.147 18.4416 111.131 18.7247C111.115 19.0077 111.103 19.2999 111.094 19.6012C111.085 19.9025 111.08 20.181 111.08 20.4367V25.2438H112.962V15.2323H110.432L105.83 22.8334H105.789C105.799 22.7649 105.808 22.628 105.817 22.4225C105.826 22.2171 105.836 21.9763 105.847 21.7001C105.859 21.4239 105.868 21.142 105.875 20.8544C105.882 20.5668 105.885 20.3043 105.885 20.0669V15.2323H103.983V25.2438H106.526ZM120.371 14.39C121.171 14.39 121.807 14.2873 122.28 14.0819C122.753 13.8764 123.1 13.5888 123.323 13.219C123.546 12.8492 123.682 12.4224 123.732 11.9385H121.851C121.801 12.4224 121.648 12.7557 121.394 12.9383C121.139 13.1209 120.812 13.2122 120.412 13.2122C119.93 13.2122 119.58 13.1289 119.362 12.9622C119.144 12.7956 119.014 12.4543 118.973 11.9385H117.112C117.153 12.4407 117.271 12.8755 117.467 13.243C117.662 13.6105 117.989 13.8935 118.448 14.0921C118.908 14.2907 119.548 14.39 120.371 14.39ZM118.244 25.2438L122.866 17.5743H122.921L122.909 17.7598C122.905 17.8233 122.9 17.8995 122.894 17.9885C122.88 18.1963 122.865 18.4416 122.849 18.7247C122.833 19.0077 122.821 19.2999 122.812 19.6012C122.803 19.9025 122.798 20.181 122.798 20.4367V25.2438H124.68V15.2323H122.151L117.549 22.8334H117.508C117.517 22.7649 117.526 22.628 117.535 22.4225C117.544 22.2171 117.554 21.9763 117.566 21.7001C117.577 21.4239 117.586 21.142 117.593 20.8544C117.6 20.5668 117.603 20.3043 117.603 20.0669V15.2323H115.701V25.2438H118.244ZM133.383 25.2438V21.683H134.29C135.017 21.683 135.628 21.5928 136.124 21.4125C136.619 21.2321 137.016 20.9868 137.313 20.6763C137.611 20.3659 137.826 20.0109 137.958 19.6115C138.09 19.212 138.155 18.7932 138.155 18.3549C138.155 17.3825 137.86 16.619 137.269 16.0643C136.678 15.5096 135.74 15.2323 134.453 15.2323H131.27V25.2438H133.383ZM134.078 19.9436H133.383V16.9716H134.344C134.917 16.9716 135.34 17.0915 135.612 17.3312C135.885 17.5708 136.021 17.9372 136.021 18.4302C136.021 18.7818 135.942 19.0694 135.783 19.2931C135.624 19.5168 135.399 19.6811 135.108 19.7861C134.817 19.8911 134.474 19.9436 134.078 19.9436ZM146.001 25.2438V23.4908H142.374V20.9092H145.749V19.1698H142.374V16.9716H146.001V15.2323H140.261V25.2438H146.001ZM150.417 25.2438V16.999H154.085V25.2438H156.192V15.2323H148.304V25.2438H150.417ZM163.233 25.3808C164.047 25.3808 164.751 25.2587 165.347 25.0144C165.942 24.7702 166.434 24.4198 166.823 23.9633C167.211 23.5068 167.501 22.9624 167.692 22.3301C167.883 21.6978 167.978 20.9959 167.978 20.2244C167.978 19.1835 167.809 18.2773 167.47 17.5058C167.132 16.7343 166.614 16.1362 165.916 15.7116C165.218 15.2871 164.329 15.0748 163.247 15.0748C162.161 15.0748 161.265 15.2871 160.561 15.7116C159.856 16.1362 159.335 16.7331 158.996 17.5024C158.657 18.2716 158.488 19.1744 158.488 20.2107C158.488 20.9868 158.584 21.6921 158.774 22.3267C158.965 22.9612 159.255 23.5068 159.644 23.9633C160.032 24.4198 160.524 24.7702 161.12 25.0144C161.715 25.2587 162.42 25.3808 163.233 25.3808ZM163.233 23.6004C162.642 23.6004 162.161 23.4645 161.788 23.1929C161.415 22.9213 161.141 22.5332 160.966 22.0288C160.791 21.5243 160.704 20.9229 160.704 20.2244C160.704 19.5213 160.791 18.9176 160.966 18.4131C161.141 17.9087 161.416 17.5206 161.791 17.249C162.166 16.9774 162.651 16.8415 163.247 16.8415C164.142 16.8415 164.785 17.1428 165.176 17.7455C165.567 18.3481 165.763 19.1744 165.763 20.2244C165.763 20.9229 165.677 21.5243 165.507 22.0288C165.337 22.5332 165.065 22.9213 164.692 23.1929C164.32 23.4645 163.833 23.6004 163.233 23.6004ZM172.381 25.2438V21.683H173.288C174.015 21.683 174.626 21.5928 175.122 21.4125C175.617 21.2321 176.014 20.9868 176.312 20.6763C176.609 20.3659 176.824 20.0109 176.956 19.6115C177.088 19.212 177.154 18.7932 177.154 18.3549C177.154 17.3825 176.858 16.619 176.267 16.0643C175.676 15.5096 174.738 15.2323 173.451 15.2323H170.268V25.2438H172.381ZM173.076 19.9436H172.381V16.9716H173.342C173.915 16.9716 174.338 17.0915 174.61 17.3312C174.883 17.5708 175.02 17.9372 175.02 18.4302C175.02 18.7818 174.94 19.0694 174.781 19.2931C174.622 19.5168 174.397 19.6811 174.106 19.7861C173.815 19.8911 173.472 19.9436 173.076 19.9436ZM183.104 25.2438V16.999H185.811V15.2323H178.284V16.999H180.99V25.2438H183.104ZM188.591 25.2438L189.313 22.8608H192.947L193.67 25.2438H195.947L192.415 15.1912H189.831L186.313 25.2438H188.591ZM192.443 21.0804H189.845L190.561 18.7521C190.593 18.6471 190.645 18.4713 190.718 18.2248C190.79 17.9783 190.867 17.7169 190.946 17.4407C191.026 17.1645 191.088 16.9328 191.134 16.7457C191.179 16.9328 191.239 17.1531 191.314 17.4065C191.389 17.6599 191.464 17.9087 191.539 18.1529C191.614 18.3971 191.674 18.5969 191.72 18.7521L192.443 21.0804ZM198.434 25.2438L201.768 20.1696V25.2438H203.738V20.1696L207.072 25.2438H209.335L205.79 20.0395L209.145 15.2323H206.963L203.738 20.0806V15.2323H201.768V20.0806L198.543 15.2323H196.368L199.716 20.0395L196.17 25.2438H198.434Z" fill="black"/>
<path id="&#208;&#162;&#208;&#149;&#208;&#155;&#208;&#149;&#208;&#146;&#208;&#152;&#208;&#151;&#208;&#152;&#208;&#158;&#208;&#157;&#208;&#157;&#208;&#158;&#208;&#149;&#208;&#144;&#208;&#147;&#208;&#149;&#208;&#157;&#208;&#162;&#208;&#161;&#208;&#162;&#208;&#146;&#208;&#158;" d="M132.903 33.6584V30.6903H133.878V30.0543H131.168V30.6903H132.142V33.6584H132.903ZM136.608 33.6584V33.0273H135.302V32.0979H136.517V31.4718H135.302V30.6804H136.608V30.0543H134.542V33.6584H136.608ZM137.419 33.7077C137.621 33.7077 137.784 33.6691 137.909 33.5919C138.034 33.5146 138.133 33.4024 138.206 33.2554C138.279 33.1083 138.336 32.9295 138.379 32.7192C138.405 32.5926 138.432 32.4455 138.459 32.2779C138.486 32.1103 138.512 31.9336 138.536 31.7479C138.561 31.5622 138.584 31.3781 138.607 31.1957C138.63 31.0132 138.651 30.8448 138.671 30.6903H139.55V33.6584H140.308V30.0543H138.043C138.012 30.3139 137.979 30.5637 137.946 30.8037C137.912 31.0436 137.88 31.2651 137.849 31.4681C137.818 31.671 137.79 31.8477 137.765 31.9981C137.741 32.1485 137.721 32.2647 137.707 32.3469C137.672 32.5343 137.638 32.681 137.603 32.787C137.569 32.893 137.53 32.9677 137.487 33.0113C137.444 33.0548 137.389 33.0766 137.324 33.0766C137.273 33.0766 137.226 33.0721 137.184 33.0631C137.141 33.054 137.099 33.0421 137.056 33.0273V33.6535C137.108 33.6699 137.165 33.6831 137.227 33.6929C137.288 33.7028 137.352 33.7077 137.419 33.7077ZM143.392 33.6584V33.0273H142.086V32.0979H143.301V31.4718H142.086V30.6804H143.392V30.0543H141.326V33.6584H143.392ZM145.595 33.6584C145.867 33.6584 146.101 33.6169 146.298 33.5339C146.495 33.4509 146.647 33.3314 146.753 33.1752C146.86 33.0191 146.913 32.8317 146.913 32.6132C146.913 32.4242 146.884 32.2726 146.826 32.1583C146.768 32.0441 146.69 31.957 146.594 31.897C146.497 31.837 146.389 31.7947 146.27 31.7701V31.7454C146.388 31.724 146.488 31.678 146.569 31.6074C146.651 31.5367 146.714 31.4463 146.757 31.3362C146.801 31.2261 146.822 31.1028 146.822 30.9664C146.822 30.6278 146.699 30.3912 146.454 30.2564C146.209 30.1216 145.847 30.0543 145.369 30.0543H144.252V33.6584H145.595ZM145.455 31.4816H145.013V30.6804H145.413C145.631 30.6804 145.79 30.7104 145.891 30.7704C145.991 30.8304 146.042 30.9294 146.042 31.0675C146.042 31.2039 145.999 31.307 145.914 31.3769C145.829 31.4467 145.676 31.4816 145.455 31.4816ZM145.509 33.0273H145.013V32.0881H145.485C145.647 32.0881 145.774 32.107 145.866 32.1448C145.959 32.1826 146.025 32.2352 146.064 32.3025C146.103 32.3699 146.123 32.448 146.123 32.5367C146.123 32.6863 146.078 32.8054 145.988 32.8942C145.898 32.9829 145.738 33.0273 145.509 33.0273ZM148.657 33.6584L150.321 30.8974H150.341C150.339 30.922 150.336 30.9717 150.331 31.0465C150.326 31.1213 150.321 31.2096 150.315 31.3115C150.309 31.4134 150.305 31.5186 150.301 31.6271C150.298 31.7355 150.296 31.8358 150.296 31.9278V33.6584H150.974V30.0543H150.063L148.407 32.7907H148.392C148.395 32.766 148.398 32.7167 148.402 32.6427C148.405 32.5688 148.409 32.4821 148.413 32.3827C148.417 32.2832 148.42 32.1817 148.422 32.0782C148.425 31.9747 148.426 31.8802 148.426 31.7947V30.0543H147.741V33.6584H148.657ZM153.069 33.7077C153.399 33.7077 153.677 33.6621 153.901 33.5709C154.125 33.4797 154.294 33.3531 154.409 33.1913C154.523 33.0294 154.581 32.8432 154.581 32.6329C154.581 32.3929 154.492 32.1982 154.316 32.0486C154.139 31.8991 153.887 31.8079 153.56 31.775V31.7602C153.823 31.7224 154.041 31.6295 154.212 31.4816C154.384 31.3337 154.47 31.139 154.47 30.8974C154.47 30.7232 154.419 30.5691 154.317 30.4351C154.214 30.3012 154.068 30.1956 153.876 30.1184C153.685 30.0411 153.454 30.0025 153.184 30.0025C152.978 30.0025 152.791 30.0185 152.624 30.0506C152.458 30.0826 152.304 30.1282 152.164 30.1874C152.024 30.2465 151.893 30.3164 151.77 30.3969L152.102 30.9072C152.242 30.8185 152.394 30.7474 152.556 30.694C152.718 30.6406 152.892 30.6139 153.079 30.6139C153.294 30.6139 153.457 30.6504 153.567 30.7236C153.677 30.7967 153.731 30.8949 153.731 31.0182C153.731 31.1168 153.7 31.201 153.637 31.2708C153.574 31.3407 153.463 31.3941 153.306 31.4311C153.148 31.4681 152.926 31.4866 152.642 31.4866H152.34V32.0831H152.676C153.028 32.0831 153.308 32.1226 153.515 32.2015C153.723 32.2804 153.827 32.4061 153.827 32.5786C153.827 32.7479 153.756 32.8786 153.612 32.9706C153.469 33.0627 153.239 33.1087 152.921 33.1087C152.807 33.1087 152.683 33.0992 152.548 33.0803C152.414 33.0614 152.282 33.0343 152.152 32.999C152.022 32.9636 151.904 32.9213 151.8 32.872V33.513C151.954 33.5754 152.136 33.6235 152.346 33.6572C152.556 33.6909 152.797 33.7077 153.069 33.7077ZM156.275 33.6584L157.939 30.8974H157.959C157.957 30.922 157.954 30.9717 157.949 31.0465C157.944 31.1213 157.939 31.2096 157.933 31.3115C157.928 31.4134 157.923 31.5186 157.92 31.6271C157.917 31.7355 157.915 31.8358 157.915 31.9278V33.6584H158.592V30.0543H157.682L156.025 32.7907H156.01C156.014 32.766 156.017 32.7167 156.02 32.6427C156.023 32.5688 156.027 32.4821 156.031 32.3827C156.035 32.2832 156.039 32.1817 156.041 32.0782C156.043 31.9747 156.045 31.8802 156.045 31.7947V30.0543H155.36V33.6584H156.275ZM161.158 33.7077C161.451 33.7077 161.705 33.6638 161.919 33.5758C162.134 33.4879 162.311 33.3618 162.451 33.1974C162.591 33.0331 162.695 32.8371 162.764 32.6095C162.832 32.3818 162.867 32.1292 162.867 31.8514C162.867 31.4767 162.806 31.1505 162.684 30.8727C162.562 30.595 162.375 30.3797 162.124 30.2268C161.873 30.074 161.553 29.9976 161.163 29.9976C160.772 29.9976 160.45 30.074 160.196 30.2268C159.943 30.3797 159.755 30.5946 159.633 30.8715C159.511 31.1484 159.45 31.4734 159.45 31.8465C159.45 32.1259 159.485 32.3798 159.553 32.6082C159.622 32.8367 159.726 33.0331 159.866 33.1974C160.006 33.3618 160.183 33.4879 160.398 33.5758C160.612 33.6638 160.866 33.7077 161.158 33.7077ZM161.158 33.0668C160.946 33.0668 160.772 33.0179 160.638 32.9201C160.504 32.8223 160.405 32.6826 160.342 32.501C160.279 32.3194 160.248 32.1029 160.248 31.8514C160.248 31.5983 160.279 31.381 160.342 31.1994C160.405 31.0178 160.504 30.8781 160.639 30.7803C160.774 30.6825 160.949 30.6336 161.163 30.6336C161.486 30.6336 161.717 30.7421 161.858 30.959C161.999 31.1759 162.069 31.4734 162.069 31.8514C162.069 32.1029 162.038 32.3194 161.977 32.501C161.916 32.6826 161.818 32.8223 161.684 32.9201C161.549 33.0179 161.374 33.0668 161.158 33.0668ZM164.483 33.6584V32.1029H165.904V33.6584H166.662V30.0543H165.904V31.4668H164.483V30.0543H163.722V33.6584H164.483ZM168.441 33.6584V32.1029H169.862V33.6584H170.62V30.0543H169.862V31.4668H168.441V30.0543H167.68V33.6584H168.441ZM173.186 33.7077C173.479 33.7077 173.733 33.6638 173.947 33.5758C174.161 33.4879 174.339 33.3618 174.478 33.1974C174.618 33.0331 174.723 32.8371 174.791 32.6095C174.86 32.3818 174.895 32.1292 174.895 31.8514C174.895 31.4767 174.834 31.1505 174.712 30.8727C174.59 30.595 174.403 30.3797 174.152 30.2268C173.901 30.074 173.581 29.9976 173.191 29.9976C172.8 29.9976 172.478 30.074 172.224 30.2268C171.971 30.3797 171.783 30.5946 171.661 30.8715C171.539 31.1484 171.478 31.4734 171.478 31.8465C171.478 32.1259 171.512 32.3798 171.581 32.6082C171.65 32.8367 171.754 33.0331 171.894 33.1974C172.034 33.3618 172.211 33.4879 172.425 33.5758C172.64 33.6638 172.893 33.7077 173.186 33.7077ZM173.186 33.0668C172.974 33.0668 172.8 33.0179 172.666 32.9201C172.532 32.8223 172.433 32.6826 172.37 32.501C172.307 32.3194 172.276 32.1029 172.276 31.8514C172.276 31.5983 172.307 31.381 172.37 31.1994C172.433 31.0178 172.532 30.8781 172.667 30.7803C172.802 30.6825 172.977 30.6336 173.191 30.6336C173.514 30.6336 173.745 30.7421 173.886 30.959C174.026 31.1759 174.097 31.4734 174.097 31.8514C174.097 32.1029 174.066 32.3194 174.005 32.501C173.943 32.6826 173.846 32.8223 173.711 32.9201C173.577 33.0179 173.402 33.0668 173.186 33.0668ZM177.816 33.6584V33.0273H176.511V32.0979H177.726V31.4718H176.511V30.6804H177.816V30.0543H175.75V33.6584H177.816ZM180.462 33.6584L180.723 32.8005H182.031L182.291 33.6584H183.111L181.839 30.0395H180.909L179.643 33.6584H180.462ZM181.849 32.1596H180.914L181.172 31.3214C181.183 31.2836 181.202 31.2203 181.228 31.1316C181.254 31.0428 181.282 30.9487 181.31 30.8493C181.339 30.7499 181.362 30.6665 181.378 30.5991C181.394 30.6665 181.416 30.7458 181.443 30.837C181.47 30.9282 181.497 31.0178 181.524 31.1057C181.551 31.1936 181.573 31.2655 181.589 31.3214L181.849 32.1596ZM184.435 33.6584V30.6854H185.942V30.0543H183.674V33.6584H184.435ZM188.672 33.6584V33.0273H187.367V32.0979H188.582V31.4718H187.367V30.6804H188.672V30.0543H186.606V33.6584H188.672ZM190.294 33.6584V32.1029H191.715V33.6584H192.473V30.0543H191.715V31.4668H190.294V30.0543H189.533V33.6584H190.294ZM194.875 33.6584V30.6903H195.849V30.0543H193.139V30.6903H194.114V33.6584H194.875ZM197.966 33.7077C198.157 33.7077 198.33 33.6933 198.484 33.6646C198.638 33.6358 198.794 33.5886 198.953 33.5228V32.8819C198.781 32.9427 198.622 32.9895 198.475 33.0224C198.329 33.0553 198.183 33.0717 198.037 33.0717C197.828 33.0717 197.657 33.0244 197.524 32.9299C197.392 32.8354 197.294 32.6982 197.231 32.5183C197.168 32.3383 197.136 32.1209 197.136 31.8662C197.136 31.6772 197.156 31.5071 197.195 31.3559C197.235 31.2047 197.292 31.0757 197.368 30.9689C197.444 30.862 197.539 30.7803 197.651 30.7236C197.763 30.6669 197.892 30.6385 198.037 30.6385C198.168 30.6385 198.301 30.6623 198.437 30.71C198.573 30.7577 198.708 30.8135 198.842 30.8776L199.088 30.2564C198.924 30.1775 198.753 30.1155 198.573 30.0703C198.394 30.0251 198.216 30.0025 198.037 30.0025C197.766 30.0025 197.525 30.0477 197.316 30.1381C197.106 30.2285 196.93 30.3567 196.788 30.5227C196.646 30.6886 196.538 30.885 196.464 31.1118C196.39 31.3386 196.353 31.5885 196.353 31.8613C196.353 32.2311 196.411 32.5544 196.525 32.8313C196.64 33.1083 196.816 33.3236 197.054 33.4772C197.292 33.6309 197.596 33.7077 197.966 33.7077ZM201.212 33.6584V30.6903H202.186V30.0543H199.477V30.6903H200.451V33.6584H201.212ZM204.193 33.6584C204.464 33.6584 204.699 33.6169 204.896 33.5339C205.093 33.4509 205.245 33.3314 205.351 33.1752C205.458 33.0191 205.511 32.8317 205.511 32.6132C205.511 32.4242 205.482 32.2726 205.424 32.1583C205.366 32.0441 205.288 31.957 205.192 31.897C205.095 31.837 204.987 31.7947 204.868 31.7701V31.7454C204.986 31.724 205.085 31.678 205.167 31.6074C205.249 31.5367 205.312 31.4463 205.355 31.3362C205.398 31.2261 205.42 31.1028 205.42 30.9664C205.42 30.6278 205.297 30.3912 205.052 30.2564C204.806 30.1216 204.445 30.0543 203.967 30.0543H202.85V33.6584H204.193ZM204.053 31.4816H203.611V30.6804H204.011C204.229 30.6804 204.388 30.7104 204.489 30.7704C204.589 30.8304 204.64 30.9294 204.64 31.0675C204.64 31.2039 204.597 31.307 204.512 31.3769C204.427 31.4467 204.274 31.4816 204.053 31.4816ZM204.107 33.0273H203.611V32.0881H204.082C204.244 32.0881 204.372 32.107 204.464 32.1448C204.557 32.1826 204.622 32.2352 204.662 32.3025C204.701 32.3699 204.721 32.448 204.721 32.5367C204.721 32.6863 204.676 32.8054 204.586 32.8942C204.496 32.9829 204.336 33.0273 204.107 33.0273ZM207.888 33.7077C208.181 33.7077 208.434 33.6638 208.649 33.5758C208.863 33.4879 209.04 33.3618 209.18 33.1974C209.32 33.0331 209.424 32.8371 209.493 32.6095C209.562 32.3818 209.596 32.1292 209.596 31.8514C209.596 31.4767 209.535 31.1505 209.413 30.8727C209.291 30.595 209.105 30.3797 208.854 30.2268C208.603 30.074 208.282 29.9976 207.893 29.9976C207.502 29.9976 207.179 30.074 206.926 30.2268C206.672 30.3797 206.484 30.5946 206.363 30.8715C206.241 31.1484 206.18 31.4734 206.18 31.8465C206.18 32.1259 206.214 32.3798 206.283 32.6082C206.352 32.8367 206.456 33.0331 206.596 33.1974C206.736 33.3618 206.913 33.4879 207.127 33.5758C207.341 33.6638 207.595 33.7077 207.888 33.7077ZM207.888 33.0668C207.675 33.0668 207.502 33.0179 207.368 32.9201C207.233 32.8223 207.135 32.6826 207.072 32.501C207.009 32.3194 206.977 32.1029 206.977 31.8514C206.977 31.5983 207.009 31.381 207.072 31.1994C207.135 31.0178 207.234 30.8781 207.369 30.7803C207.504 30.6825 207.679 30.6336 207.893 30.6336C208.215 30.6336 208.447 30.7421 208.587 30.959C208.728 31.1759 208.799 31.4734 208.799 31.8514C208.799 32.1029 208.768 32.3194 208.707 32.501C208.645 32.6826 208.547 32.8223 208.413 32.9201C208.279 33.0179 208.104 33.0668 207.888 33.0668Z" fill="black"/>
</g>
</g>
</svg>
