<svg width="128" height="208" viewBox="0 0 128 208" fill="none" xmlns="http://www.w3.org/2000/svg">
<path id="Rectangle-2" fill-rule="evenodd" clip-rule="evenodd" d="M73.0946 0C97.6313 0 128 23.3386 128 55.0292C128 86.7198 109.238 100.492 102.158 104.994C117.253 134.835 124.8 149.755 124.8 149.755H76.8134V208L40.2914 149.755H0V0H73.0946ZM67.5871 8.03632H29.0727C32.2037 8.03632 57.6 25.7074 57.6 55.0292C57.6 84.351 42.5527 97.6592 31.7939 104.994C42.7866 126.823 51.2472 143.624 57.1759 155.397L58.0254 157.084C58.5797 158.184 59.1099 159.237 59.616 160.242L60.3571 161.714C62.7671 166.5 64.5746 170.089 65.7796 172.482L66.123 173.164C66.2857 173.487 66.4348 173.783 66.5704 174.052L66.9364 174.779C67.3702 175.64 67.5871 176.071 67.5871 176.071V137.372L57.6 120.98L67.5871 109.949V8.03632Z" fill="black"/>
</svg>
