<svg width="307" height="307" viewBox="0 0 307 307" fill="none" xmlns="http://www.w3.org/2000/svg">
<path fill-rule="evenodd" clip-rule="evenodd" d="M307 0H0V307H181.019H307V0ZM181.019 307L128.234 222.433H70V5H175.645C211.108 5 255 38.8859 255 84.8982C255 130.91 227.882 150.907 217.651 157.444L250.375 222.433H181.019V307ZM112.019 16.6681H167.685V164.638L153.25 180.654L167.685 204.454V260.642L166.744 258.766L166.215 257.71L165.568 256.42L165.072 255.43L157.235 239.796L156.164 237.66L153.865 233.074L152.637 230.624L115.952 157.444C131.502 146.794 153.25 127.471 153.25 84.8982C153.25 42.3252 116.544 16.6681 112.019 16.6681Z" fill="white"/>
</svg>
